<svg width="97" height="19" viewBox="0 0 97 19" fill="none" xmlns="http://www.w3.org/2000/svg">
<g id="facebook ">
<path id="Vector" d="M7.07745 18.0171H3.46007V9.42691H0.99585V6.63011H3.45998V4.63999C3.45998 2.28169 4.54987 0.590332 8.15745 0.590332C8.92046 0.590332 10.1183 0.736834 10.1183 0.736834V3.33382H8.86017C7.57819 3.33382 7.07764 3.70528 7.07764 4.73226V6.63011H10.0703L9.80385 9.42691H7.07755L7.07745 18.0171ZM15.3776 6.40661C15.3249 6.40661 15.2707 6.40844 15.217 6.40972C11.8628 6.40972 10.3281 8.81319 10.3281 12.225C10.3281 16.5229 12.3188 18.2431 15.2432 18.2431C16.9164 18.2431 18.0157 17.5722 18.6838 16.3203V18.0183H22.1245V6.6313H18.6838V8.38247C18.1383 7.25581 17.0083 6.41996 15.3776 6.40661ZM16.2525 9.09733C17.6613 9.09733 18.5068 10.0334 18.5068 11.6256L18.5101 13.2519C18.5101 14.325 17.8117 15.5805 16.2525 15.5805C13.8553 15.5805 13.9194 13.1149 13.9194 12.2937C13.9194 9.53126 15.1966 9.09733 16.2525 9.09733ZM23.514 12.3254C23.514 10.9417 23.4445 6.41402 29.6369 6.41402C32.1226 6.41402 33.1606 7.16692 33.1606 7.16692L32.3263 9.63176C32.3263 9.63176 31.2897 9.088 29.939 9.088C28.209 9.088 27.1051 10.0434 27.1051 11.7243L27.107 12.9296C27.107 14.5448 28.1721 15.623 29.9425 15.623C31.1731 15.623 32.3072 15.0741 32.3072 15.0741L33.1393 17.4875C33.1393 17.4875 32.1903 18.2451 29.6542 18.2451C23.7581 18.2451 23.5141 14.1829 23.5141 12.3254H23.514ZM53.3343 6.40972C56.6886 6.40972 58.2475 8.81319 58.2475 12.225C58.2475 16.5229 56.2567 18.2431 53.3323 18.2431C51.6591 18.2431 50.4222 17.5723 49.7541 16.3203V18.0183L46.3567 18.017V0.93656L49.9638 0.63688V8.22819C50.4844 6.90007 52.1953 6.40972 53.3344 6.40972H53.3343ZM52.323 9.09733C50.9142 9.09733 49.9638 10.0334 49.9638 11.6256L49.9605 13.2519C49.9583 14.325 50.6186 15.5805 52.323 15.5805C54.7201 15.5805 54.6561 13.1149 54.6561 12.2937C54.6561 9.53126 53.379 9.09733 52.323 9.09733ZM39.4192 6.41914C35.6147 6.41914 33.6062 8.39509 33.6062 11.9066V12.559C33.6062 17.1165 36.4268 18.2899 39.7895 18.2899C43.058 18.2899 44.5374 17.419 44.5374 17.419L43.8624 15.0999C43.8624 15.0999 42.1222 15.8052 40.2219 15.8052C38.252 15.8052 37.4048 15.327 37.1877 13.5236H44.8258V11.663C44.8258 7.85398 42.5716 6.41905 39.4191 6.41905L39.4192 6.41914ZM39.5109 8.74141C40.8278 8.74141 41.6811 9.51068 41.6343 11.2948H37.1943C37.2713 9.41704 38.1915 8.7415 39.5109 8.7415V8.74141ZM65.4399 6.4035C61.533 6.4035 59.4762 8.5008 59.4762 12.2593C59.4762 17.4161 63.0216 18.2462 65.4464 18.2462C68.9961 18.2462 71.3577 16.4257 71.3577 12.3061C71.3577 8.01832 68.7023 6.4035 65.4399 6.4035ZM65.3907 9.10666C67.1087 9.10666 67.7894 10.3314 67.7894 11.7256V12.9242C67.7894 14.6131 66.8369 15.59 65.3842 15.59C64.0256 15.59 63.0708 14.6762 63.0708 12.9242V11.7256C63.0708 9.85709 64.207 9.10666 65.3907 9.10666ZM78.5437 6.4035C74.6368 6.4035 72.58 8.5008 72.58 12.2593C72.58 17.4161 76.1255 18.2462 78.5502 18.2462C82.0998 18.2462 84.4615 16.4257 84.4615 12.3061C84.4615 8.01832 81.8061 6.4035 78.5437 6.4035ZM78.4945 9.10666C80.2125 9.10666 80.8931 10.3314 80.8931 11.7256V12.9242C80.8931 14.6131 79.9406 15.59 78.488 15.59C77.1294 15.59 76.1746 14.6762 76.1746 12.9242V11.7256C76.1746 9.85709 77.3108 9.10666 78.4945 9.10666ZM85.8246 18.0171V0.93656L89.4422 0.63688V12.0853L93.0312 6.63011H96.8517L93.1077 12.2801L96.9958 18.0171H93.1646L89.4422 12.4466V18.0171H85.8246Z" fill="#1877F2"/>
</g>
</svg>
