<svg width="97" height="33" viewBox="0 0 97 33" fill="none" xmlns="http://www.w3.org/2000/svg">
<g id="google">
<path id="Vector" d="M42.0781 17.2865C42.0781 21.9242 38.5214 25.3416 34.1565 25.3416C29.7915 25.3416 26.2348 21.9242 26.2348 17.2865C26.2348 12.6162 29.7915 9.23145 34.1565 9.23145C38.5214 9.23145 42.0781 12.6162 42.0781 17.2865ZM38.6104 17.2865C38.6104 14.3884 36.549 12.4055 34.1565 12.4055C31.764 12.4055 29.7025 14.3884 29.7025 17.2865C29.7025 20.1556 31.764 22.1675 34.1565 22.1675C36.549 22.1675 38.6104 20.1519 38.6104 17.2865Z" fill="#EA4335"/>
<path id="Vector_2" d="M59.1676 17.2865C59.1676 21.9242 55.6109 25.3416 51.246 25.3416C46.881 25.3416 43.3243 21.9242 43.3243 17.2865C43.3243 12.6198 46.881 9.23145 51.246 9.23145C55.6109 9.23145 59.1676 12.6162 59.1676 17.2865ZM55.6999 17.2865C55.6999 14.3884 53.6385 12.4055 51.246 12.4055C48.8534 12.4055 46.792 14.3884 46.792 17.2865C46.792 20.1556 48.8534 22.1675 51.246 22.1675C53.6385 22.1675 55.6999 20.1519 55.6999 17.2865Z" fill="#FBBC05"/>
<path id="Vector_3" d="M75.545 9.71809V24.1795C75.545 30.1282 72.1058 32.5578 68.0399 32.5578C64.2126 32.5578 61.9091 29.9466 61.0403 27.8111L64.0595 26.5292C64.5971 27.8402 65.9144 29.3873 68.0363 29.3873C70.6389 29.3873 72.2517 27.7494 72.2517 24.6661V23.5076H72.1307C71.3545 24.4845 69.8592 25.338 67.9723 25.338C64.0239 25.338 60.4066 21.8298 60.4066 17.3156C60.4066 12.7687 64.0239 9.23145 67.9723 9.23145C69.8557 9.23145 71.351 10.0849 72.1307 11.0328H72.2517V9.72172H75.545V9.71809ZM72.4974 17.3156C72.4974 14.4792 70.6425 12.4055 68.282 12.4055C65.8895 12.4055 63.885 14.4792 63.885 17.3156C63.885 20.1229 65.8895 22.1675 68.282 22.1675C70.6425 22.1675 72.4974 20.1229 72.4974 17.3156Z" fill="#4285F4"/>
<path id="Vector_4" d="M80.9745 1.2417V24.8476H77.5922V1.2417H80.9745Z" fill="#34A853"/>
<path id="Vector_5" d="M94.1547 19.9374L96.8463 21.7677C95.9776 23.0788 93.8842 25.3377 90.2669 25.3377C85.7809 25.3377 82.4307 21.8004 82.4307 17.2826C82.4307 12.4924 85.8094 9.22754 89.8788 9.22754C93.9767 9.22754 95.9812 12.5542 96.6363 14.3518L96.9959 15.267L86.4396 19.7267C87.2478 21.3428 88.5045 22.1672 90.2669 22.1672C92.0328 22.1672 93.2575 21.2811 94.1547 19.9374ZM85.8699 17.0393L92.9264 14.0504C92.5384 13.0444 91.3706 12.3435 89.9963 12.3435C88.234 12.3435 85.7809 13.9306 85.8699 17.0393Z" fill="#EA4335"/>
<g id="Group">
<path id="Vector_6" d="M13.432 15.1909V11.7735H24.7217C24.8321 12.3691 24.889 13.0736 24.889 13.8362C24.889 16.4002 24.2019 19.5707 21.9874 21.8296C19.8334 24.1175 17.0813 25.3378 13.4355 25.3378C6.67809 25.3378 0.99585 19.7232 0.99585 12.8303C0.99585 5.93734 6.67809 0.322754 13.4355 0.322754C17.1739 0.322754 19.837 1.81901 21.8379 3.76922L19.4738 6.18066C18.039 4.80788 16.0951 3.74017 13.432 3.74017C8.49741 3.74017 4.63804 7.79676 4.63804 12.8303C4.63804 17.8638 8.49741 21.9204 13.432 21.9204C16.6327 21.9204 18.4556 20.6093 19.6234 19.4181C20.5704 18.4521 21.1934 17.0721 21.4391 15.1872L13.432 15.1909Z" fill="#4285F4"/>
</g>
</g>
</svg>
