<svg width="80" height="79" viewBox="0 0 80 79" fill="none" xmlns="http://www.w3.org/2000/svg">
<g id="nike ">
<path id="Vector" fill-rule="evenodd" clip-rule="evenodd" d="M14.9811 43.9342C14.3722 43.9342 13.8955 44.3602 13.8955 44.9818C13.8955 45.6039 14.3747 46.0274 14.9811 46.0274C15.5872 46.0274 16.0668 45.601 16.0668 44.9818C16.0668 44.3602 15.5897 43.9342 14.9811 43.9342ZM14.9811 45.7279C14.5469 45.7279 14.2249 45.4107 14.2249 44.9818C14.2249 44.5534 14.5445 44.2338 14.9811 44.2338C15.4125 44.2338 15.737 44.5583 15.737 44.9818C15.737 45.4029 15.4096 45.7279 14.9811 45.7279ZM25.5453 40.27H20.2601L20.8609 31.0837L17.4287 40.27H12.5209L20.308 19.5063H25.5301L24.9274 28.8187L28.4246 19.5063H33.3328L25.5453 40.27ZM26.1829 40.27L33.9696 19.5063H38.8774L31.0907 40.27H26.1829Z" fill="black"/>
<path id="Vector_2" fill-rule="evenodd" clip-rule="evenodd" d="M11.9549 33.1135C5.0967 41.1674 -1.37274 51.8838 4.34168 56.8187C9.87891 61.6009 16.8001 58.7694 21.5193 56.8817C26.2385 54.9939 78.3996 32.3425 78.3996 32.3425C78.9029 32.0908 78.8088 31.7761 78.1794 31.9333C77.9257 31.9967 21.3937 47.3173 21.3937 47.3173C14.22 49.3311 6.04038 44.9421 11.9549 33.1135Z" fill="black"/>
<path id="Vector_3" fill-rule="evenodd" clip-rule="evenodd" d="M15.1661 45.0555C15.3183 45.0481 15.4374 44.9695 15.4374 44.7588C15.4374 44.487 15.2598 44.4187 14.9631 44.4187H14.5367V45.5453H14.8211V45.0657H14.869L15.128 45.5453H15.455L15.1661 45.0555ZM14.9836 44.8729H14.8215V44.6115H14.9582C15.0421 44.6115 15.1382 44.6213 15.1382 44.7305C15.1382 44.8476 15.0826 44.8729 14.9836 44.8729ZM64.3165 19.4429C63.7075 19.4429 63.2308 19.8693 63.2308 20.4905C63.2308 21.1121 63.7104 21.5356 64.3165 21.5356C64.9225 21.5356 65.4021 21.1092 65.4021 20.4905C65.4026 19.8693 64.9258 19.4429 64.3165 19.4429ZM64.3165 21.2369C63.8823 21.2369 63.5602 20.9198 63.5602 20.4909C63.5602 20.0624 63.8798 19.7428 64.3165 19.7428C64.7478 19.7428 65.0727 20.0673 65.0727 20.4909C65.0727 20.912 64.7453 21.2369 64.3165 21.2369Z" fill="black"/>
<path id="Vector_4" fill-rule="evenodd" clip-rule="evenodd" d="M64.5019 20.5642C64.6541 20.5568 64.7736 20.4783 64.7736 20.2675C64.7736 19.9958 64.5956 19.9274 64.2993 19.9274H63.8729V21.0536H64.1569V20.5744H64.2052L64.4638 21.0536H64.7912L64.5019 20.5642ZM64.3189 20.3817H64.1569V20.1202H64.294C64.3775 20.1202 64.474 20.1304 64.474 20.2397C64.474 20.3563 64.418 20.3817 64.3189 20.3817ZM61.0828 22.9672L62.4017 19.5063H47.4265L42.2846 25.7356L44.6585 19.5063H39.6877L31.9631 40.27H36.871L40.1689 31.5871L40.3948 40.27L55.4539 40.2373L56.8874 36.2433H51.1619L53.0431 31.2098H57.7619L59.2139 27.3401H54.4951L56.1127 22.9672H61.0828ZM45.2638 38.8856L44.9491 28.0637L52.3696 19.9164L45.2638 38.8856Z" fill="black"/>
</g>
</svg>
