<svg width="96" height="25" viewBox="0 0 96 25" fill="none" xmlns="http://www.w3.org/2000/svg">
<path id="Vector" d="M94.3951 21.1868C93.976 21.1909 93.5755 21.365 93.2813 21.6708C92.987 21.9767 92.823 22.3895 92.825 22.819C92.827 23.2484 92.9949 23.6596 93.292 23.9625C93.5891 24.2655 93.9912 24.4356 94.4104 24.4356C94.8296 24.4356 95.2317 24.2655 95.5288 23.9625C95.8259 23.6596 95.9938 23.2484 95.9958 22.819C95.9978 22.3895 95.8338 21.9767 95.5395 21.6708C95.2453 21.365 94.8448 21.1909 94.4256 21.1868H94.3951ZM94.3951 24.2496C94.1202 24.2543 93.8501 24.1753 93.619 24.0227C93.3879 23.8702 93.2061 23.6508 93.0966 23.3923C92.9872 23.1339 92.955 22.848 93.0042 22.5708C93.0533 22.2936 93.1816 22.0376 93.3727 21.8351C93.5639 21.6326 93.8094 21.4927 94.0781 21.4332C94.3469 21.3736 94.6268 21.3971 94.8826 21.5005C95.1383 21.604 95.3584 21.7828 95.5149 22.0144C95.6714 22.246 95.7574 22.52 95.762 22.8017V22.8256C95.7697 23.1951 95.6339 23.5526 95.3843 23.8195C95.1348 24.0864 94.792 24.2409 94.4314 24.2489H94.3955L94.3951 24.2496ZM88.3093 20.743H84.8642V15.2153C84.8642 13.8971 84.8413 12.2003 83.0724 12.2003C81.2782 12.2003 81.0036 13.6364 81.0036 15.1193V20.7426H77.5586V9.37537H80.8658V10.9288H80.9121C81.2431 10.349 81.7214 9.87202 82.296 9.54867C82.8706 9.22532 83.5201 9.06771 84.1752 9.09262C87.6669 9.09262 88.3107 11.4458 88.3107 14.5071L88.3093 20.743ZM73.6714 7.82154C73.276 7.82162 72.8895 7.70155 72.5607 7.47654C72.2319 7.25152 71.9756 6.93166 71.8242 6.5574C71.6728 6.18314 71.6332 5.77129 71.7102 5.37393C71.7873 4.97657 71.9776 4.61156 72.2572 4.32504C72.5367 4.03852 72.8929 3.84336 73.2807 3.76426C73.6685 3.68515 74.0705 3.72564 74.4358 3.88061C74.8011 4.03557 75.1134 4.29806 75.3332 4.63487C75.5529 4.97168 75.6702 5.36769 75.6703 5.77282C75.6703 6.04181 75.6187 6.30818 75.5182 6.55672C75.4178 6.80525 75.2706 7.03109 75.085 7.22133C74.8994 7.41157 74.679 7.5625 74.4365 7.66548C74.1939 7.76846 73.934 7.8215 73.6714 7.82154ZM75.394 20.743H71.9453V9.37537H75.394V20.743ZM90.0268 0.446935H70.2142C69.7645 0.441735 69.3312 0.61967 69.0095 0.941639C68.6878 1.26361 68.504 1.70327 68.4985 2.16401V22.548C68.5038 23.0089 68.6875 23.4489 69.0092 23.7712C69.3309 24.0935 69.7643 24.2718 70.2142 24.2669H90.0268C90.4776 24.2727 90.9122 24.0949 91.2352 23.7726C91.5581 23.4503 91.743 23.0098 91.7493 22.548V2.16254C91.7428 1.70089 91.5578 1.26072 91.2348 0.938764C90.9118 0.616802 90.4773 0.439376 90.0268 0.445464V0.446935ZM59.1219 12.119C57.3994 12.119 56.3659 13.2974 56.3659 15.0145C56.3659 16.7316 57.399 17.9111 59.1219 17.9111C60.8448 17.9111 61.8804 16.7345 61.8804 15.0145C61.8804 13.2945 60.8466 12.119 59.1219 12.119ZM65.052 20.7364H61.8804V19.2289H61.8334C61.4355 19.7772 60.9194 20.224 60.3254 20.5345C59.7313 20.8449 59.0753 21.0107 58.4085 21.0188C55.0984 21.0188 52.9179 18.5711 52.9179 15.1097C52.9179 11.9308 54.8475 9.01173 58.0195 9.01173C59.4452 9.01173 60.7769 9.4114 61.5582 10.5192H61.6034V3.96676H65.0517L65.052 20.7364ZM48.4947 13.7328C48.5013 13.4464 48.451 13.1616 48.3471 12.8958C48.2431 12.6299 48.0875 12.3883 47.8897 12.1859C47.692 11.9834 47.4562 11.8241 47.1966 11.7178C46.937 11.6114 46.659 11.5602 46.3796 11.5671C45.7776 11.5287 45.1851 11.7343 44.7297 12.1394C44.2743 12.5445 43.9925 13.1168 43.9451 13.7328H48.4947ZM51.4129 18.77C50.8404 19.4813 50.1207 20.0532 49.3059 20.4444C48.4911 20.8355 47.6016 21.0361 46.7018 21.0316C43.2568 21.0316 40.4986 18.6755 40.4986 15.027C40.4986 11.3785 43.2564 9.0235 46.7018 9.0235C49.9218 9.0235 51.9411 11.3767 51.9411 15.027V16.1337H43.9451C44.0446 16.7614 44.3622 17.3311 44.8393 17.7377C45.3164 18.1444 45.9209 18.3607 46.5414 18.3468C47.0317 18.3437 47.5135 18.215 47.9429 17.9724C48.3723 17.7298 48.7357 17.381 48.9999 16.9577L51.4129 18.77ZM17.1656 9.37243H20.4739V10.9259H20.5209C20.8514 10.3458 21.3294 9.86862 21.9039 9.54522C22.4784 9.22181 23.1279 9.06436 23.783 9.08968C27.2765 9.08968 27.9195 11.4447 27.9195 14.5042V20.7379H24.4745V15.2112C24.4745 13.892 24.4508 12.1962 22.6802 12.1962C20.8895 12.1962 20.6132 13.6328 20.6132 15.1153V20.7364H17.1681L17.1656 9.37243ZM29.6664 3.96786H33.1115V13.9927L37.0159 9.36618H41.2396L36.718 14.6288L41.1445 20.7434H36.8145L33.1574 15.1245H33.1122V20.7426H29.6672L29.6664 3.96786ZM11.8104 9.37132H15.2554V20.7386H11.8104V9.37132ZM13.5329 3.72004C13.9281 3.72012 14.3145 3.84027 14.6431 4.06531C14.9717 4.29035 15.2278 4.61017 15.379 4.98433C15.5302 5.35849 15.5697 5.77019 15.4926 6.16737C15.4154 6.56454 15.2251 6.92936 14.9456 7.21569C14.666 7.50202 14.31 7.697 13.9223 7.77597C13.5346 7.85495 13.1328 7.81438 12.7677 7.65939C12.4025 7.5044 12.0904 7.24195 11.8708 6.90523C11.6513 6.56851 11.5341 6.17264 11.5341 5.76767C11.5341 5.49874 11.5858 5.23245 11.6862 4.98399C11.7867 4.73554 11.9339 4.50979 12.1195 4.31965C12.3051 4.12951 12.5255 3.97869 12.768 3.87581C13.0105 3.77292 13.2704 3.72 13.5329 3.72004ZM0 3.97044H3.58607V17.3541H10.2249V20.7448H0V3.97044ZM94.6467 22.9142C94.7057 22.9148 94.7642 22.903 94.8185 22.8794C94.8729 22.8559 94.922 22.8212 94.9627 22.7775C95.0034 22.7337 95.0349 22.6818 95.0552 22.6251C95.0756 22.5684 95.0843 22.5079 95.0809 22.4476C95.0809 22.1167 94.8861 21.9586 94.4863 21.9586H93.8403V23.6911H94.0833V22.9359H94.3819L94.3887 22.9451L94.852 23.6911H95.1118L94.6133 22.919L94.6467 22.9142ZM94.3657 22.7406H94.084V22.1549H94.4411C94.6255 22.1549 94.8358 22.1858 94.8358 22.4332C94.8358 22.7178 94.623 22.7406 94.3643 22.7406" fill="#0A66C2"/>
</svg>
